<?xml version="1.0" encoding="utf-8"?>
<!-- Generator: Adobe Illustrator 23.0.1, SVG Export Plug-In . SVG Version: 6.00 Build 0)  -->
<svg version="1.1" id="Layer_1" xmlns="http://www.w3.org/2000/svg" xmlns:xlink="http://www.w3.org/1999/xlink" x="0px" y="0px"
	 viewBox="0 0 194.45 161.89" style="enable-background:new 0 0 194.45 161.89;" xml:space="preserve">
<style type="text/css">
	.st0{fill:#FFFFFF;}
</style>
<g>
	<path class="st0" d="M35.37,78.42c0-5.04-4.01-6.31-7.23-7.34c-3.7-1.18-4.29-2-4.29-3.52c0-2.31,2.24-3.13,4.15-3.13
		c1.56,0,2.86,0.64,3.55,1.76l0.41,0.66L35.25,64l-0.43-0.5c-1.65-1.94-3.89-2.88-6.83-2.88c-4.03,0-8.36,2.25-8.36,7.18
		c0,4.26,2.92,5.82,6.07,6.86l0.59,0.19c3.77,1.25,4.86,1.7,4.86,3.77c0,2.12-2.19,3.26-4.25,3.26c-1.84,0-3.46-0.84-4.24-2.19
		L22.28,79l-3.37,2.76l0.34,0.5c1.47,2.17,4.21,3.42,7.51,3.42C31.04,85.69,35.37,83.44,35.37,78.42z"/>
	<polygon class="st0" points="47.5,85.11 47.5,65.01 54.97,65.01 54.97,61.19 36.02,61.19 36.02,65.01 43.49,65.01 43.49,85.11 	"/>
	<path class="st0" d="M87.29,61.19h-3.4L73.71,84.3l-6.04-9.79c3.31-0.84,5.25-3.19,5.25-6.43c0-6.89-6.77-6.89-9.67-6.89h-6.44
		v23.93h4.01V74.96h2.41l6.13,10.15h3.99h0.86h3.63l2.33-5.55h10.41l2.3,5.55h4.58L87.29,61.19z M68.72,68.08
		c0,2.84-2.67,3.07-6.16,3.07h-1.73v-6.14h3.1C67.33,65.01,68.72,65.9,68.72,68.08z M89.02,75.74h-7.24l3.71-8.77L89.02,75.74z"/>
	<polygon class="st0" points="104.89,85.11 104.89,65.01 112.36,65.01 112.36,61.19 93.41,61.19 93.41,65.01 100.88,65.01 
		100.88,85.11 	"/>
	<polygon class="st0" points="130.3,81.29 118.21,81.29 118.21,74.58 128.96,74.58 128.96,70.76 118.21,70.76 118.21,65.01 
		129.73,65.01 129.73,61.19 114.2,61.19 114.2,85.11 130.3,85.11 	"/>
	<path class="st0" d="M153.33,83.5l0.34-0.19V71.14h-9.21v3.82h5.2v5.84c-1.48,0.66-3.33,1.06-4.95,1.06
		c-5.11,0-8.69-3.59-8.69-8.72c0-5.05,3.55-8.72,8.43-8.72c2.18,0,4.3,0.89,5.67,2.37l0.48,0.52l2.94-3.09l-0.45-0.46
		c-2.07-2.1-4.91-3.17-8.45-3.17c-7.43,0-12.83,5.27-12.83,12.54c0,7.38,5.24,12.54,12.73,12.54
		C147.72,85.69,150.76,84.93,153.33,83.5z"/>
	<path class="st0" d="M186.21,81.46l0.37-0.5l-3.02-2.54l-0.42,0.54c-1.51,1.93-3.53,2.9-6.02,2.9c-4.61,0-7.95-3.67-7.95-8.72
		c0-4.89,3.49-8.72,7.95-8.72c2.09,0,3.96,0.9,5.11,2.47l0.39,0.53l3.42-2.48l-0.42-0.54c-1.89-2.45-4.91-3.8-8.51-3.8
		c-6.93,0-12.16,5.39-12.16,12.54c0,7.15,5.23,12.54,12.16,12.54C181.08,85.69,184.13,84.27,186.21,81.46z"/>
	<rect x="20.73" y="99.51" class="st0" width="4.01" height="23.93"/>
	<polygon class="st0" points="35.42,123.43 39.43,123.43 39.43,106.03 51.56,123.43 55.96,123.43 55.96,99.51 51.95,99.51 
		51.95,116.91 39.81,99.51 35.42,99.51 	"/>
	<polygon class="st0" points="81.99,103.33 81.99,99.51 66.65,99.51 66.65,123.43 70.66,123.43 70.66,113.28 81.19,113.28 
		81.19,109.46 70.66,109.46 70.66,103.33 	"/>
	<rect x="90.79" y="99.51" class="st0" width="4.01" height="23.93"/>
	<polygon class="st0" points="109.49,106.03 121.63,123.43 126.02,123.43 126.02,99.51 122.01,99.51 122.01,116.91 109.87,99.51 
		105.48,99.51 105.48,123.43 109.49,123.43 	"/>
	<rect x="136.71" y="99.51" class="st0" width="4.01" height="23.93"/>
	<polygon class="st0" points="148.94,103.33 156.41,103.33 156.41,122.35 156.43,157.89 3.99,157.89 3.99,3.99 157.99,3.99 
		157.99,85.11 161.99,85.11 161.98,0 0,0 0,161.89 160.42,161.89 160.42,103.33 167.89,103.33 167.89,99.51 148.94,99.51 	"/>
	<polygon class="st0" points="189.63,99.51 183.46,109.14 177.47,99.51 172.45,99.51 181.44,113.23 181.44,123.43 185.46,123.43 
		185.46,113.23 194.45,99.51 	"/>
</g>
</svg>
