<?xml version="1.0" encoding="utf-8"?>

<!-- Generator: Adobe Illustrator 23.0.6, SVG Export Plug-In . SVG Version: 6.00 Build 0)  -->
<svg version="1.1" id="Layer_1" xmlns="http://www.w3.org/2000/svg" xmlns:xlink="http://www.w3.org/1999/xlink" x="0px" y="0px"
	 viewBox="0 0 841.89 595.28" style="enable-background:new 0 0 841.89 595.28;fill: #fff;" xml:space="preserve">
<g>
	<path d="M253.35,393.13c-0.77-1.34-1.7-2.11-3.35-2.11c-1.73,0-3.22,1.24-3.22,3.01c0,1.67,1.73,2.45,3.04,3.04l1.29,0.57
		c2.52,1.11,4.66,2.37,4.66,5.46c0,3.4-2.73,6-6.1,6c-3.12,0-5.43-2.01-6.05-5.02l2.11-0.59c0.28,1.98,1.8,3.6,3.89,3.6
		s3.99-1.6,3.99-3.78c0-2.27-1.78-3.04-3.58-3.86l-1.18-0.52c-2.27-1.03-4.22-2.19-4.22-4.97c0-3.01,2.55-4.94,5.43-4.94
		c2.16,0,3.99,1.11,5.02,3.01L253.35,393.13z"/>
	<path d="M271.79,408.76h-2.16v-17.41h-4.69v-2.01h11.59v2.01h-4.74V408.76z"/>
	<path d="M288.62,408.76h-2.16v-19.42h2.81c3.68,0,7.11,0.98,7.11,5.36c0,2.99-1.88,5.1-4.87,5.36l6.18,8.7h-2.65l-5.87-8.52h-0.54
		V408.76z M288.62,398.33h0.67c2.45,0,4.92-0.46,4.92-3.48c0-3.19-2.34-3.5-4.94-3.5h-0.64V398.33z"/>
	<path d="M311.04,403.25l-2.34,5.51h-2.37l8.96-20.34l8.73,20.34h-2.39l-2.29-5.51H311.04z M315.24,393.47l-3.32,7.78h6.56
		L315.24,393.47z"/>
	<path d="M336.93,408.76h-2.16v-17.41h-4.69v-2.01h11.59v2.01h-4.74V408.76z"/>
	<path d="M351.6,389.35h10.07v2.01h-7.91v5.77h7.67v2.01h-7.67v7.62h7.91v2.01H351.6V389.35z"/>
	<path d="M391.09,399.01c0.05,2.62-0.23,4.79-2.01,6.85c-1.78,2.06-4.48,3.24-7.18,3.24c-5.46,0-9.99-4.53-9.99-9.99
		c0-5.57,4.53-10.1,10.12-10.1c3.4,0,6.15,1.52,8.21,4.2l-1.57,1.47c-1.62-2.29-3.81-3.65-6.67-3.65c-4.43,0-7.93,3.73-7.93,8.11
		c0,2.06,0.82,4.02,2.27,5.48c1.42,1.42,3.48,2.47,5.51,2.47c3.37,0,6.93-2.47,6.93-6.08H383v-2.01H391.09z"/>
	<path d="M404.07,408.76h-2.16v-19.42h2.16V408.76z"/>
	<path d="M430.53,393.6c-1.54-1.6-3.68-2.57-5.92-2.57c-4.33,0-7.83,3.76-7.83,8.03c0,4.28,3.53,8.04,7.88,8.04
		c2.19,0,4.33-1.03,5.87-2.57v2.68c-1.67,1.21-3.73,1.9-5.79,1.9c-5.48,0-10.12-4.45-10.12-9.96c0-5.56,4.56-10.12,10.12-10.12
		c2.16,0,4.07,0.62,5.79,1.91V393.6z"/>
	<path d="M462.65,408.76h-2.16v-17.41h-4.69v-2.01h11.59v2.01h-4.74V408.76z"/>
	<path d="M478.16,403.25l-2.34,5.51h-2.37l8.96-20.34l8.73,20.34h-2.39l-2.29-5.51H478.16z M482.36,393.47l-3.32,7.78h6.57
		L482.36,393.47z"/>
	<path d="M515.77,393.6c-1.54-1.6-3.68-2.57-5.92-2.57c-4.33,0-7.83,3.76-7.83,8.03c0,4.28,3.53,8.04,7.88,8.04
		c2.19,0,4.33-1.03,5.87-2.57v2.68c-1.67,1.21-3.73,1.9-5.79,1.9c-5.48,0-10.12-4.45-10.12-9.96c0-5.56,4.56-10.12,10.12-10.12
		c2.17,0,4.07,0.62,5.79,1.91V393.6z"/>
	<path d="M532.29,408.76h-2.16v-17.41h-4.69v-2.01h11.59v2.01h-4.74V408.76z"/>
	<path d="M549.17,408.76h-2.16v-19.42h2.16V408.76z"/>
	<path d="M575.63,393.6c-1.54-1.6-3.68-2.57-5.92-2.57c-4.33,0-7.83,3.76-7.83,8.03c0,4.28,3.53,8.04,7.88,8.04
		c2.19,0,4.33-1.03,5.87-2.57v2.68c-1.67,1.21-3.73,1.9-5.79,1.9c-5.48,0-10.12-4.45-10.12-9.96c0-5.56,4.56-10.12,10.12-10.12
		c2.16,0,4.07,0.62,5.79,1.91V393.6z"/>
	<path d="M595.78,393.13c-0.78-1.34-1.7-2.11-3.35-2.11c-1.72,0-3.22,1.24-3.22,3.01c0,1.67,1.72,2.45,3.04,3.04l1.29,0.57
		c2.52,1.11,4.66,2.37,4.66,5.46c0,3.4-2.73,6-6.1,6c-3.12,0-5.43-2.01-6.05-5.02l2.11-0.59c0.28,1.98,1.8,3.6,3.89,3.6
		s3.99-1.6,3.99-3.78c0-2.27-1.78-3.04-3.58-3.86l-1.18-0.52c-2.27-1.03-4.23-2.19-4.23-4.97c0-3.01,2.55-4.94,5.44-4.94
		c2.16,0,3.99,1.11,5.02,3.01L595.78,393.13z"/>
</g>
<g>
	<path d="M272.86,424.48c-1.55-1.6-3.68-2.57-5.92-2.57c-4.33,0-7.83,3.76-7.83,8.03c0,4.28,3.53,8.04,7.88,8.04
		c2.19,0,4.33-1.03,5.87-2.57v2.68c-1.67,1.21-3.73,1.9-5.79,1.9c-5.48,0-10.12-4.46-10.12-9.96c0-5.56,4.56-10.12,10.12-10.12
		c2.16,0,4.07,0.62,5.79,1.91V424.48z"/>
	<path d="M286.36,437.64h5.36v2.01h-7.52v-19.42h2.16V437.64z"/>
	<path d="M301.54,420.23h10.07v2.01h-7.91V428h7.67v2.01h-7.67v7.62h7.91v2.01h-10.07V420.23z"/>
	<path d="M325.92,434.13l-2.34,5.51h-2.37l8.96-20.34l8.73,20.34h-2.39l-2.29-5.51H325.92z M330.11,424.35l-3.32,7.78h6.56
		L330.11,424.35z"/>
	<path d="M350.88,439.64h-2.16v-19.42h2.81c3.68,0,7.11,0.98,7.11,5.36c0,2.99-1.88,5.1-4.87,5.36l6.18,8.7h-2.65l-5.87-8.52h-0.54
		V439.64z M350.88,429.21h0.67c2.45,0,4.92-0.46,4.92-3.48c0-3.19-2.34-3.5-4.94-3.5h-0.64V429.21z"/>
	<path d="M394.84,424.02c-0.77-1.34-1.7-2.11-3.35-2.11c-1.73,0-3.22,1.24-3.22,3.01c0,1.67,1.73,2.45,3.04,3.04l1.29,0.57
		c2.52,1.11,4.66,2.37,4.66,5.46c0,3.4-2.73,6-6.1,6c-3.12,0-5.43-2.01-6.05-5.02l2.11-0.59c0.28,1.98,1.8,3.6,3.89,3.6
		c2.09,0,3.99-1.6,3.99-3.78c0-2.27-1.78-3.04-3.58-3.86l-1.18-0.52c-2.27-1.03-4.22-2.19-4.22-4.97c0-3.01,2.55-4.94,5.43-4.94
		c2.16,0,3.99,1.11,5.02,3.01L394.84,424.02z"/>
	<path d="M427.4,429.96c0,5.59-4.58,10.02-10.12,10.02c-5.54,0-10.12-4.43-10.12-10.02c0-5.56,4.58-10.07,10.12-10.07
		C422.82,419.89,427.4,424.4,427.4,429.96z M409.32,429.94c0,4.38,3.55,8.04,7.96,8.04c4.4,0,7.96-3.66,7.96-8.04
		c0-4.4-3.5-8.03-7.96-8.03C412.83,421.9,409.32,425.53,409.32,429.94z"/>
	<path d="M440.18,437.64h5.36v2.01h-7.52v-19.42h2.16V437.64z"/>
	<path d="M457.5,431.79c0,1.44-0.05,3.09,0.85,4.32c0.85,1.18,2.5,1.86,3.91,1.86c1.39,0,2.91-0.64,3.81-1.73
		c1.03-1.24,0.95-2.93,0.95-4.45v-11.56h2.16v12.16c0,2.11-0.15,3.78-1.7,5.38c-1.34,1.44-3.27,2.22-5.23,2.22
		c-1.83,0-3.71-0.69-5.02-1.98c-1.7-1.62-1.91-3.4-1.91-5.61v-12.16h2.16V431.79z"/>
	<path d="M485.89,439.64h-2.16v-17.41h-4.69v-2.01h11.59v2.01h-4.74V439.64z"/>
	<path d="M502.77,439.64h-2.16v-19.42h2.16V439.64z"/>
	<path d="M533.69,429.96c0,5.59-4.58,10.02-10.12,10.02s-10.12-4.43-10.12-10.02c0-5.56,4.58-10.07,10.12-10.07
		S533.69,424.4,533.69,429.96z M515.61,429.94c0,4.38,3.55,8.04,7.96,8.04c4.41,0,7.96-3.66,7.96-8.04c0-4.4-3.5-8.03-7.96-8.03
		C519.11,421.9,515.61,425.53,515.61,429.94z"/>
	<path d="M544.46,419.41l15.14,15.86v-15.04h2.16v20.29l-15.14-15.84v14.96h-2.16V419.41z"/>
	<path d="M582.3,424.02c-0.77-1.34-1.7-2.11-3.35-2.11c-1.73,0-3.22,1.24-3.22,3.01c0,1.67,1.73,2.45,3.04,3.04l1.29,0.57
		c2.52,1.11,4.66,2.37,4.66,5.46c0,3.4-2.73,6-6.1,6c-3.12,0-5.44-2.01-6.05-5.02l2.11-0.59c0.28,1.98,1.8,3.6,3.89,3.6
		s3.99-1.6,3.99-3.78c0-2.27-1.78-3.04-3.58-3.86l-1.18-0.52c-2.27-1.03-4.22-2.19-4.22-4.97c0-3.01,2.55-4.94,5.43-4.94
		c2.16,0,3.99,1.11,5.02,3.01L582.3,424.02z"/>
</g>
<g>
	<path d="M363.05,253.72c0-6.58-5.24-8.25-9.45-9.59c-4.83-1.54-5.61-2.61-5.61-4.6c0-3.02,2.93-4.09,5.43-4.09
		c2.04,0,3.73,0.84,4.64,2.3l0.54,0.86l4.29-3.74l-0.56-0.66c-2.16-2.53-5.08-3.76-8.92-3.76c-5.26,0-10.92,2.93-10.92,9.38
		c0,5.57,3.82,7.6,7.93,8.96l0.77,0.25c4.93,1.64,6.36,2.22,6.36,4.93c0,2.77-2.86,4.26-5.56,4.26c-2.4,0-4.53-1.1-5.54-2.86
		l-0.51-0.89l-4.41,3.61l0.44,0.66c1.92,2.84,5.5,4.47,9.81,4.47C357.4,263.22,363.05,260.28,363.05,253.72"/>
</g>
<polygon points="378.41,262.47 378.41,236.19 388.17,236.19 388.17,231.2 363.91,231.2 363.91,236.19 373.16,236.19 373.16,262.47 
	"/>
<g>
	<path d="M432.67,250.22h-9.46l4.85-11.47L432.67,250.22z M406.13,240.2c0,3.71-3.49,4.01-8.06,4.01h-2.26v-8.02h4.05
		C404.32,236.19,406.13,237.35,406.13,240.2 M430.41,231.2h-4.44l-13.31,30.21l-7.89-12.8c4.32-1.1,6.86-4.17,6.86-8.4
		c0-9-8.85-9-12.64-9h-8.42v31.27h5.24V249.2h3.14l8.01,13.26h5.22h1.13h4.75l3.05-7.26h13.61l3,7.26h5.98L430.41,231.2z"/>
</g>
<polygon points="452.9,262.47 452.9,236.19 462.66,236.19 462.66,231.2 438.4,231.2 438.4,236.19 447.66,236.19 447.66,262.47 "/>
<polygon points="485.08,257.48 470.31,257.48 470.31,248.7 483.33,248.7 483.33,243.71 470.31,243.71 470.31,236.19 484.33,236.19 
	484.33,231.2 465.07,231.2 465.07,262.47 485.08,262.47 "/>
<g>
	<path d="M515.18,260.36l0.44-0.25v-15.9h-12.04v4.99h6.8v7.63c-1.93,0.86-4.36,1.39-6.47,1.39c-6.68,0-11.35-4.68-11.35-11.39
		c0-6.6,4.64-11.39,11.02-11.39c2.85,0,5.62,1.16,7.41,3.1l0.63,0.68l3.85-4.03l-0.59-0.6c-2.71-2.75-6.42-4.14-11.04-4.14
		c-9.72,0-16.76,6.89-16.76,16.39c0,9.65,6.84,16.39,16.64,16.39C507.84,263.22,511.81,262.23,515.18,260.36"/>
	<path d="M558.15,257.7l0.49-0.66l-3.94-3.31l-0.56,0.71c-1.97,2.51-4.61,3.79-7.87,3.79c-6.02,0-10.39-4.79-10.39-11.39
		c0-6.39,4.57-11.4,10.39-11.4c2.74,0,5.17,1.18,6.68,3.24l0.51,0.69l4.47-3.24l-0.54-0.71c-2.47-3.21-6.42-4.97-11.12-4.97
		c-9.06,0-15.89,7.04-15.89,16.39c0,9.34,6.83,16.39,15.89,16.39C551.44,263.22,555.44,261.36,558.15,257.7"/>
</g>
<rect x="343.92" y="281.28" width="5.24" height="31.27"/>
<polygon points="363.12,312.55 368.36,312.55 368.36,289.8 384.22,312.55 389.97,312.55 389.97,281.28 384.73,281.28 384.73,304.03 
	368.86,281.28 363.12,281.28 "/>
<polygon points="423.99,286.27 423.99,281.28 403.93,281.28 403.93,312.55 409.18,312.55 409.18,299.29 422.94,299.29 422.94,294.3 
	409.18,294.3 409.18,286.27 "/>
<rect x="435.49" y="281.28" width="5.24" height="31.27"/>
<polygon points="459.93,289.8 475.79,312.55 481.54,312.55 481.54,281.28 476.29,281.28 476.29,304.03 460.43,281.28 454.69,281.28 
	454.69,312.55 459.93,312.55 "/>
<rect x="495.51" y="281.28" width="5.24" height="31.27"/>
<polygon points="316.83,151.23 316.83,362.81 526.49,362.81 526.5,286.28 536.26,286.28 536.26,281.28 511.49,281.28 511.49,286.28 
	521.26,286.28 521.27,357.59 322.05,357.59 322.05,156.44 521.27,156.44 521.27,262.47 526.49,262.47 526.49,151.23 "/>
<polygon points="564.67,281.28 556.61,293.87 548.78,281.28 542.22,281.28 553.97,299.22 553.97,312.55 559.22,312.55 
	559.22,299.22 570.97,281.28 "/>
</svg>
